<mxfile host="app.diagrams.net" modified="2022-12-29T13:05:00.076Z" agent="5.0 (Macintosh; Intel Mac OS X 10_15_7) AppleWebKit/537.36 (KHTML, like Gecko) Chrome/108.0.0.0 Safari/537.36" version="20.7.4" etag="b5x4Jf8BI5SBoa5zADCp" type="github">
  <diagram id="NEHOJAYmmKg0kBT2WMSM" name="第 1 页">
    <mxGraphModel dx="3105" dy="1848" grid="1" gridSize="10" guides="1" tooltips="1" connect="1" arrows="1" fold="1" page="1" pageScale="1" pageWidth="827" pageHeight="1169" math="0" shadow="0">
      <root>
        <mxCell id="0" />
        <mxCell id="1" parent="0" />
        <mxCell id="6tVbxTEidcQ9l3ojBttz-6" value="" style="shape=cube;whiteSpace=wrap;html=1;boundedLbl=1;backgroundOutline=1;darkOpacity=0.05;darkOpacity2=0.1;fillColor=#dae8fc;strokeColor=#6c8ebf;" vertex="1" parent="1">
          <mxGeometry x="870" y="740" width="140" height="100" as="geometry" />
        </mxCell>
        <mxCell id="6tVbxTEidcQ9l3ojBttz-57" style="edgeStyle=orthogonalEdgeStyle;rounded=0;orthogonalLoop=1;jettySize=auto;html=1;strokeWidth=4;fontSize=30;" edge="1" parent="1" source="6tVbxTEidcQ9l3ojBttz-7" target="6tVbxTEidcQ9l3ojBttz-27">
          <mxGeometry relative="1" as="geometry" />
        </mxCell>
        <mxCell id="6tVbxTEidcQ9l3ojBttz-7" value="EVM" style="shape=cube;whiteSpace=wrap;html=1;boundedLbl=1;backgroundOutline=1;darkOpacity=0.05;darkOpacity2=0.1;fontSize=24;fontStyle=1" vertex="1" parent="1">
          <mxGeometry x="969" y="320" width="170" height="130" as="geometry" />
        </mxCell>
        <mxCell id="6tVbxTEidcQ9l3ojBttz-49" style="edgeStyle=orthogonalEdgeStyle;rounded=0;orthogonalLoop=1;jettySize=auto;html=1;strokeWidth=4;fontSize=24;entryX=1.002;entryY=0.51;entryDx=0;entryDy=0;entryPerimeter=0;" edge="1" parent="1" source="6tVbxTEidcQ9l3ojBttz-8" target="6tVbxTEidcQ9l3ojBttz-28">
          <mxGeometry relative="1" as="geometry">
            <mxPoint x="880" y="240" as="targetPoint" />
          </mxGeometry>
        </mxCell>
        <mxCell id="6tVbxTEidcQ9l3ojBttz-8" value="PoS" style="shape=cube;whiteSpace=wrap;html=1;boundedLbl=1;backgroundOutline=1;darkOpacity=0.05;darkOpacity2=0.1;fontSize=24;fontStyle=1" vertex="1" parent="1">
          <mxGeometry x="969" y="210" width="170" height="70" as="geometry" />
        </mxCell>
        <mxCell id="6tVbxTEidcQ9l3ojBttz-9" value="Blobs" style="shape=cube;whiteSpace=wrap;html=1;boundedLbl=1;backgroundOutline=1;darkOpacity=0.05;darkOpacity2=0.1;fontSize=24;fontStyle=1" vertex="1" parent="1">
          <mxGeometry x="969" y="490" width="170" height="130" as="geometry" />
        </mxCell>
        <mxCell id="6tVbxTEidcQ9l3ojBttz-12" value="" style="line;strokeWidth=4;direction=south;html=1;" vertex="1" parent="1">
          <mxGeometry x="1049" y="280" width="10" height="50" as="geometry" />
        </mxCell>
        <mxCell id="6tVbxTEidcQ9l3ojBttz-14" value="" style="line;strokeWidth=4;direction=south;html=1;" vertex="1" parent="1">
          <mxGeometry x="1049" y="450" width="10" height="50" as="geometry" />
        </mxCell>
        <mxCell id="6tVbxTEidcQ9l3ojBttz-16" value="" style="shape=cube;whiteSpace=wrap;html=1;boundedLbl=1;backgroundOutline=1;darkOpacity=0.05;darkOpacity2=0.1;fillColor=#fff2cc;strokeColor=#d6b656;" vertex="1" parent="1">
          <mxGeometry x="984" y="760" width="140" height="100" as="geometry" />
        </mxCell>
        <mxCell id="6tVbxTEidcQ9l3ojBttz-17" value="" style="shape=cube;whiteSpace=wrap;html=1;boundedLbl=1;backgroundOutline=1;darkOpacity=0.05;darkOpacity2=0.1;fillColor=#d5e8d4;strokeColor=#82b366;" vertex="1" parent="1">
          <mxGeometry x="1105" y="800" width="140" height="100" as="geometry" />
        </mxCell>
        <mxCell id="6tVbxTEidcQ9l3ojBttz-23" value="" style="endArrow=none;html=1;rounded=0;strokeWidth=2;entryX=0;entryY=0;entryDx=95;entryDy=130;entryPerimeter=0;exitX=0;exitY=0;exitDx=60;exitDy=0;exitPerimeter=0;" edge="1" parent="1" target="6tVbxTEidcQ9l3ojBttz-9">
          <mxGeometry width="50" height="50" relative="1" as="geometry">
            <mxPoint x="930" y="740" as="sourcePoint" />
            <mxPoint x="679" y="550" as="targetPoint" />
          </mxGeometry>
        </mxCell>
        <mxCell id="6tVbxTEidcQ9l3ojBttz-24" value="" style="endArrow=none;html=1;rounded=0;strokeWidth=2;exitX=0;exitY=0;exitDx=60;exitDy=0;exitPerimeter=0;entryX=0;entryY=0;entryDx=95;entryDy=130;entryPerimeter=0;" edge="1" parent="1" source="6tVbxTEidcQ9l3ojBttz-16" target="6tVbxTEidcQ9l3ojBttz-9">
          <mxGeometry width="50" height="50" relative="1" as="geometry">
            <mxPoint x="862.3000000000002" y="700" as="sourcePoint" />
            <mxPoint x="1059" y="630" as="targetPoint" />
          </mxGeometry>
        </mxCell>
        <mxCell id="6tVbxTEidcQ9l3ojBttz-25" value="" style="endArrow=none;html=1;rounded=0;strokeWidth=2;entryX=0;entryY=0;entryDx=95;entryDy=130;entryPerimeter=0;exitX=0;exitY=0;exitDx=60;exitDy=0;exitPerimeter=0;" edge="1" parent="1" target="6tVbxTEidcQ9l3ojBttz-9">
          <mxGeometry width="50" height="50" relative="1" as="geometry">
            <mxPoint x="1179" y="800" as="sourcePoint" />
            <mxPoint x="1084" y="640" as="targetPoint" />
          </mxGeometry>
        </mxCell>
        <mxCell id="6tVbxTEidcQ9l3ojBttz-26" value="" style="shape=cube;whiteSpace=wrap;html=1;boundedLbl=1;backgroundOutline=1;darkOpacity=0.05;darkOpacity2=0.1;fillColor=#dae8fc;strokeColor=#6c8ebf;" vertex="1" parent="1">
          <mxGeometry x="432" y="740" width="140" height="100" as="geometry" />
        </mxCell>
        <mxCell id="6tVbxTEidcQ9l3ojBttz-56" style="edgeStyle=orthogonalEdgeStyle;rounded=0;orthogonalLoop=1;jettySize=auto;html=1;exitX=0;exitY=0;exitDx=0;exitDy=55;exitPerimeter=0;entryX=1.006;entryY=0.428;entryDx=0;entryDy=0;entryPerimeter=0;strokeWidth=4;fontSize=30;" edge="1" parent="1" source="6tVbxTEidcQ9l3ojBttz-27" target="6tVbxTEidcQ9l3ojBttz-38">
          <mxGeometry relative="1" as="geometry" />
        </mxCell>
        <mxCell id="6tVbxTEidcQ9l3ojBttz-27" value="EVM" style="shape=cube;whiteSpace=wrap;html=1;boundedLbl=1;backgroundOutline=1;darkOpacity=0.05;darkOpacity2=0.1;fontSize=24;fontStyle=1" vertex="1" parent="1">
          <mxGeometry x="531" y="320" width="170" height="130" as="geometry" />
        </mxCell>
        <mxCell id="6tVbxTEidcQ9l3ojBttz-48" style="edgeStyle=orthogonalEdgeStyle;rounded=0;orthogonalLoop=1;jettySize=auto;html=1;entryX=0.994;entryY=0.51;entryDx=0;entryDy=0;entryPerimeter=0;strokeWidth=4;fontSize=24;" edge="1" parent="1" source="6tVbxTEidcQ9l3ojBttz-28" target="6tVbxTEidcQ9l3ojBttz-39">
          <mxGeometry relative="1" as="geometry" />
        </mxCell>
        <mxCell id="6tVbxTEidcQ9l3ojBttz-28" value="PoS" style="shape=cube;whiteSpace=wrap;html=1;boundedLbl=1;backgroundOutline=1;darkOpacity=0.05;darkOpacity2=0.1;fontSize=24;fontStyle=1" vertex="1" parent="1">
          <mxGeometry x="531" y="210" width="170" height="70" as="geometry" />
        </mxCell>
        <mxCell id="6tVbxTEidcQ9l3ojBttz-29" value="Blobs" style="shape=cube;whiteSpace=wrap;html=1;boundedLbl=1;backgroundOutline=1;darkOpacity=0.05;darkOpacity2=0.1;fontSize=24;fontStyle=1" vertex="1" parent="1">
          <mxGeometry x="531" y="490" width="170" height="130" as="geometry" />
        </mxCell>
        <mxCell id="6tVbxTEidcQ9l3ojBttz-30" value="" style="line;strokeWidth=4;direction=south;html=1;" vertex="1" parent="1">
          <mxGeometry x="611" y="280" width="10" height="50" as="geometry" />
        </mxCell>
        <mxCell id="6tVbxTEidcQ9l3ojBttz-31" value="" style="line;strokeWidth=4;direction=south;html=1;" vertex="1" parent="1">
          <mxGeometry x="611" y="450" width="10" height="50" as="geometry" />
        </mxCell>
        <mxCell id="6tVbxTEidcQ9l3ojBttz-32" value="" style="shape=cube;whiteSpace=wrap;html=1;boundedLbl=1;backgroundOutline=1;darkOpacity=0.05;darkOpacity2=0.1;fillColor=#fff2cc;strokeColor=#d6b656;" vertex="1" parent="1">
          <mxGeometry x="546" y="760" width="140" height="100" as="geometry" />
        </mxCell>
        <mxCell id="6tVbxTEidcQ9l3ojBttz-33" value="" style="shape=cube;whiteSpace=wrap;html=1;boundedLbl=1;backgroundOutline=1;darkOpacity=0.05;darkOpacity2=0.1;fillColor=#d5e8d4;strokeColor=#82b366;" vertex="1" parent="1">
          <mxGeometry x="681" y="800" width="140" height="100" as="geometry" />
        </mxCell>
        <mxCell id="6tVbxTEidcQ9l3ojBttz-34" value="" style="endArrow=none;html=1;rounded=0;strokeWidth=2;entryX=0;entryY=0;entryDx=95;entryDy=130;entryPerimeter=0;exitX=0;exitY=0;exitDx=60;exitDy=0;exitPerimeter=0;" edge="1" parent="1" source="6tVbxTEidcQ9l3ojBttz-26" target="6tVbxTEidcQ9l3ojBttz-29">
          <mxGeometry width="50" height="50" relative="1" as="geometry">
            <mxPoint x="451" y="700" as="sourcePoint" />
            <mxPoint x="241" y="550" as="targetPoint" />
          </mxGeometry>
        </mxCell>
        <mxCell id="6tVbxTEidcQ9l3ojBttz-35" value="" style="endArrow=none;html=1;rounded=0;strokeWidth=2;exitX=0;exitY=0;exitDx=60;exitDy=0;exitPerimeter=0;entryX=0;entryY=0;entryDx=95;entryDy=130;entryPerimeter=0;" edge="1" parent="1" source="6tVbxTEidcQ9l3ojBttz-32" target="6tVbxTEidcQ9l3ojBttz-29">
          <mxGeometry width="50" height="50" relative="1" as="geometry">
            <mxPoint x="424.3000000000002" y="700" as="sourcePoint" />
            <mxPoint x="621" y="630" as="targetPoint" />
          </mxGeometry>
        </mxCell>
        <mxCell id="6tVbxTEidcQ9l3ojBttz-36" value="" style="endArrow=none;html=1;rounded=0;strokeWidth=2;entryX=0;entryY=0;entryDx=95;entryDy=130;entryPerimeter=0;exitX=0;exitY=0;exitDx=60;exitDy=0;exitPerimeter=0;" edge="1" parent="1" source="6tVbxTEidcQ9l3ojBttz-33" target="6tVbxTEidcQ9l3ojBttz-29">
          <mxGeometry width="50" height="50" relative="1" as="geometry">
            <mxPoint x="434.3000000000002" y="710" as="sourcePoint" />
            <mxPoint x="646" y="640" as="targetPoint" />
          </mxGeometry>
        </mxCell>
        <mxCell id="6tVbxTEidcQ9l3ojBttz-37" value="" style="shape=cube;whiteSpace=wrap;html=1;boundedLbl=1;backgroundOutline=1;darkOpacity=0.05;darkOpacity2=0.1;fillColor=#dae8fc;strokeColor=#6c8ebf;" vertex="1" parent="1">
          <mxGeometry x="40" y="740" width="140" height="100" as="geometry" />
        </mxCell>
        <mxCell id="6tVbxTEidcQ9l3ojBttz-38" value="EVM" style="shape=cube;whiteSpace=wrap;html=1;boundedLbl=1;backgroundOutline=1;darkOpacity=0.05;darkOpacity2=0.1;fontSize=24;fontStyle=1" vertex="1" parent="1">
          <mxGeometry x="139" y="320" width="170" height="130" as="geometry" />
        </mxCell>
        <mxCell id="6tVbxTEidcQ9l3ojBttz-39" value="PoS" style="shape=cube;whiteSpace=wrap;html=1;boundedLbl=1;backgroundOutline=1;darkOpacity=0.05;darkOpacity2=0.1;fontSize=24;fontStyle=1" vertex="1" parent="1">
          <mxGeometry x="139" y="210" width="170" height="70" as="geometry" />
        </mxCell>
        <mxCell id="6tVbxTEidcQ9l3ojBttz-40" value="Blobs" style="shape=cube;whiteSpace=wrap;html=1;boundedLbl=1;backgroundOutline=1;darkOpacity=0.05;darkOpacity2=0.1;fontSize=24;fontStyle=1" vertex="1" parent="1">
          <mxGeometry x="139" y="490" width="170" height="130" as="geometry" />
        </mxCell>
        <mxCell id="6tVbxTEidcQ9l3ojBttz-41" value="" style="line;strokeWidth=4;direction=south;html=1;" vertex="1" parent="1">
          <mxGeometry x="219" y="280" width="10" height="50" as="geometry" />
        </mxCell>
        <mxCell id="6tVbxTEidcQ9l3ojBttz-42" value="" style="line;strokeWidth=4;direction=south;html=1;" vertex="1" parent="1">
          <mxGeometry x="219" y="450" width="10" height="50" as="geometry" />
        </mxCell>
        <mxCell id="6tVbxTEidcQ9l3ojBttz-43" value="" style="shape=cube;whiteSpace=wrap;html=1;boundedLbl=1;backgroundOutline=1;darkOpacity=0.05;darkOpacity2=0.1;fillColor=#fff2cc;strokeColor=#d6b656;" vertex="1" parent="1">
          <mxGeometry x="154" y="760" width="140" height="100" as="geometry" />
        </mxCell>
        <mxCell id="6tVbxTEidcQ9l3ojBttz-44" value="" style="shape=cube;whiteSpace=wrap;html=1;boundedLbl=1;backgroundOutline=1;darkOpacity=0.05;darkOpacity2=0.1;fillColor=#d5e8d4;strokeColor=#82b366;" vertex="1" parent="1">
          <mxGeometry x="289" y="800" width="140" height="100" as="geometry" />
        </mxCell>
        <mxCell id="6tVbxTEidcQ9l3ojBttz-45" value="" style="endArrow=none;html=1;rounded=0;strokeWidth=2;entryX=0;entryY=0;entryDx=95;entryDy=130;entryPerimeter=0;exitX=0;exitY=0;exitDx=60;exitDy=0;exitPerimeter=0;" edge="1" parent="1" source="6tVbxTEidcQ9l3ojBttz-37" target="6tVbxTEidcQ9l3ojBttz-40">
          <mxGeometry width="50" height="50" relative="1" as="geometry">
            <mxPoint x="59" y="700" as="sourcePoint" />
            <mxPoint x="-151" y="550" as="targetPoint" />
          </mxGeometry>
        </mxCell>
        <mxCell id="6tVbxTEidcQ9l3ojBttz-46" value="" style="endArrow=none;html=1;rounded=0;strokeWidth=2;exitX=0;exitY=0;exitDx=60;exitDy=0;exitPerimeter=0;entryX=0;entryY=0;entryDx=95;entryDy=130;entryPerimeter=0;" edge="1" parent="1" source="6tVbxTEidcQ9l3ojBttz-43" target="6tVbxTEidcQ9l3ojBttz-40">
          <mxGeometry width="50" height="50" relative="1" as="geometry">
            <mxPoint x="32.30000000000018" y="700" as="sourcePoint" />
            <mxPoint x="229" y="630" as="targetPoint" />
          </mxGeometry>
        </mxCell>
        <mxCell id="6tVbxTEidcQ9l3ojBttz-47" value="" style="endArrow=none;html=1;rounded=0;strokeWidth=2;entryX=0;entryY=0;entryDx=95;entryDy=130;entryPerimeter=0;exitX=0;exitY=0;exitDx=60;exitDy=0;exitPerimeter=0;" edge="1" parent="1" source="6tVbxTEidcQ9l3ojBttz-44" target="6tVbxTEidcQ9l3ojBttz-40">
          <mxGeometry width="50" height="50" relative="1" as="geometry">
            <mxPoint x="42.30000000000018" y="710" as="sourcePoint" />
            <mxPoint x="254" y="640" as="targetPoint" />
          </mxGeometry>
        </mxCell>
        <mxCell id="6tVbxTEidcQ9l3ojBttz-50" value="Consensus Layer" style="text;strokeColor=none;align=center;fillColor=none;html=1;verticalAlign=middle;whiteSpace=wrap;rounded=0;strokeWidth=4;fontSize=30;fontStyle=1" vertex="1" parent="1">
          <mxGeometry x="1264.5" y="230" width="260" height="30" as="geometry" />
        </mxCell>
        <mxCell id="6tVbxTEidcQ9l3ojBttz-52" value="Execution Layer" style="text;strokeColor=none;align=center;fillColor=none;html=1;verticalAlign=middle;whiteSpace=wrap;rounded=0;strokeWidth=4;fontSize=30;fontStyle=1" vertex="1" parent="1">
          <mxGeometry x="1264.5" y="370" width="260" height="30" as="geometry" />
        </mxCell>
        <mxCell id="6tVbxTEidcQ9l3ojBttz-54" value="Data&lt;br&gt;&lt;span style=&quot;font-weight: normal;&quot;&gt;(Mainly rely on the consensus layer to verify)&lt;/span&gt;" style="text;strokeColor=none;align=center;fillColor=none;html=1;verticalAlign=middle;whiteSpace=wrap;rounded=0;strokeWidth=4;fontSize=30;fontStyle=1" vertex="1" parent="1">
          <mxGeometry x="1210" y="475" width="369" height="160" as="geometry" />
        </mxCell>
        <mxCell id="6tVbxTEidcQ9l3ojBttz-55" value="Rollup&lt;br&gt;&lt;span style=&quot;font-weight: normal;&quot;&gt;(Layer 2/3...)&lt;/span&gt;" style="text;strokeColor=none;align=center;fillColor=none;html=1;verticalAlign=middle;whiteSpace=wrap;rounded=0;strokeWidth=4;fontSize=30;fontStyle=1" vertex="1" parent="1">
          <mxGeometry x="1264.5" y="807.5" width="260" height="85" as="geometry" />
        </mxCell>
        <mxCell id="6tVbxTEidcQ9l3ojBttz-58" value="Blob TX" style="text;strokeColor=none;align=center;fillColor=none;html=1;verticalAlign=middle;whiteSpace=wrap;rounded=0;strokeWidth=4;fontSize=25;" vertex="1" parent="1">
          <mxGeometry x="660" y="680" width="150" height="30" as="geometry" />
        </mxCell>
        <mxCell id="6tVbxTEidcQ9l3ojBttz-59" value="Blob TX" style="text;strokeColor=none;align=center;fillColor=none;html=1;verticalAlign=middle;whiteSpace=wrap;rounded=0;strokeWidth=4;fontSize=25;" vertex="1" parent="1">
          <mxGeometry x="1100" y="680" width="150" height="30" as="geometry" />
        </mxCell>
        <mxCell id="6tVbxTEidcQ9l3ojBttz-60" value="Blob TX" style="text;strokeColor=none;align=center;fillColor=none;html=1;verticalAlign=middle;whiteSpace=wrap;rounded=0;strokeWidth=4;fontSize=25;" vertex="1" parent="1">
          <mxGeometry x="270.02" y="680" width="150" height="30" as="geometry" />
        </mxCell>
      </root>
    </mxGraphModel>
  </diagram>
</mxfile>
